<mxfile host="65bd71144e">
    <diagram id="erd-1n-v3" name="ERD Essencial 1:N v3">
        <mxGraphModel dx="810" dy="825" grid="1" gridSize="10" guides="1" tooltips="1" connect="1" arrows="1" fold="1" page="1" pageScale="1" pageWidth="1100" pageHeight="850" math="0" shadow="0">
            <root>
                <mxCell id="0"/>
                <mxCell id="1" parent="0"/>
                <mxCell id="3" style="edgeStyle=none;html=1;entryX=0.5;entryY=0;entryDx=0;entryDy=0;strokeColor=default;endArrow=none;endFill=0;strokeWidth=2;" parent="1" edge="1">
                    <mxGeometry relative="1" as="geometry">
                        <mxPoint x="249.99695652173898" y="320" as="sourcePoint"/>
                        <mxPoint x="373.90999999999997" y="470" as="targetPoint"/>
                    </mxGeometry>
                </mxCell>
                <mxCell id="users" value="USERS&lt;br&gt;— id (uuid, PK)&lt;br&gt;— username (unique)&lt;br&gt;— password" style="rounded=1;whiteSpace=wrap;html=1;strokeWidth=2;fillColor=#dae8fc;strokeColor=#6c8ebf;" parent="1" vertex="1">
                    <mxGeometry x="120" y="160" width="260" height="160" as="geometry"/>
                </mxCell>
                <mxCell id="7" style="edgeStyle=none;html=1;entryX=0.75;entryY=0;entryDx=0;entryDy=0;strokeWidth=2;endArrow=none;endFill=0;" parent="1" source="tasks" target="2" edge="1">
                    <mxGeometry relative="1" as="geometry"/>
                </mxCell>
                <mxCell id="tasks" value="TASKS&lt;br&gt;— id (uuid, PK)&lt;br&gt;— title&lt;div&gt;&lt;span style=&quot;color: rgb(0, 0, 0);&quot;&gt;— description&lt;/span&gt;&lt;font color=&quot;#000000&quot;&gt;&lt;br&gt;&lt;/font&gt;— statusId (FK&amp;nbsp;&lt;span style=&quot;color: rgb(0, 0, 0);&quot;&gt;→ TASK_STATUSES.id&lt;/span&gt;)&lt;div&gt;&lt;span style=&quot;color: rgb(0, 0, 0);&quot;&gt;— userId (FK → USUÁRIOS.id)&lt;/span&gt;&lt;br&gt;&lt;/div&gt;&lt;/div&gt;" style="rounded=1;whiteSpace=wrap;html=1;strokeWidth=2;fillColor=#d5e8d4;strokeColor=#82b366;" parent="1" vertex="1">
                    <mxGeometry x="520" y="150" width="300" height="180" as="geometry"/>
                </mxCell>
                <mxCell id="rel" value="" style="endArrow=none;strokeWidth=2;" parent="1" source="users" target="tasks" edge="1">
                    <mxGeometry relative="1" as="geometry"/>
                </mxCell>
                <mxCell id="label1" value="1" style="text;html=1;strokeColor=none;fillColor=none;fontStyle=1;" parent="1" vertex="1">
                    <mxGeometry x="390" y="190" width="20" height="20" as="geometry"/>
                </mxCell>
                <mxCell id="labelN" value="N" style="text;html=1;strokeColor=none;fillColor=none;fontStyle=1;" parent="1" vertex="1">
                    <mxGeometry x="500" y="190" width="20" height="20" as="geometry"/>
                </mxCell>
                <mxCell id="2" value="TASKS_STATUSES&lt;br&gt;— id (uuid, PK)&lt;br&gt;— name&lt;div&gt;&lt;div&gt;&lt;span style=&quot;color: rgb(0, 0, 0);&quot;&gt;— userId (FK → USUÁRIOS.id)&lt;/span&gt;&lt;br&gt;&lt;/div&gt;&lt;/div&gt;&lt;div&gt;&lt;span style=&quot;color: rgb(0, 0, 0); background-color: transparent;&quot;&gt;— (name, userId) (unique)&lt;/span&gt;&amp;nbsp;&lt;/div&gt;" style="rounded=1;whiteSpace=wrap;html=1;strokeWidth=2;fillColor=#fff2cc;strokeColor=#d6b656;" parent="1" vertex="1">
                    <mxGeometry x="290" y="470" width="300" height="180" as="geometry"/>
                </mxCell>
                <mxCell id="4" value="1" style="text;html=1;strokeColor=none;fillColor=none;fontStyle=1;" parent="1" vertex="1">
                    <mxGeometry x="270" y="320" width="20" height="20" as="geometry"/>
                </mxCell>
                <mxCell id="5" value="N" style="text;html=1;strokeColor=none;fillColor=none;fontStyle=1;" parent="1" vertex="1">
                    <mxGeometry x="370" y="430" width="20" height="20" as="geometry"/>
                </mxCell>
                <mxCell id="8" value="N" style="text;html=1;strokeColor=none;fillColor=none;fontStyle=1;" parent="1" vertex="1">
                    <mxGeometry x="620" y="330" width="20" height="20" as="geometry"/>
                </mxCell>
                <mxCell id="9" value="1" style="text;html=1;strokeColor=none;fillColor=none;fontStyle=1;" parent="1" vertex="1">
                    <mxGeometry x="540" y="440" width="20" height="20" as="geometry"/>
                </mxCell>
            </root>
        </mxGraphModel>
    </diagram>
</mxfile>